# AST/ASF file generated using VICON BodyLanguage
# -----------------------------------------------
:version 1.10
:name VICON
:units
  mass 1.0
  length 0.45
  angle deg
:documentation
   .ast/.asf automatically generated from VICON data using
   VICON BodyBuilder and BodyLanguage model FoxedUp or BRILLIANT.MOD
:root
   order TX TY TZ RX RY RZ
   axis XYZ
   position 0 0 0  
   orientation 0 0 0 
:bonedata
  begin
     id 1 
     name lhipjoint
     direction 0.535335 -0.74333 0.401095 
     length 2.04549 
     axis 0 0 0  XYZ
  end
  begin
     id 2 
     name lfemur
     direction 0.34202 -0.939693 0  
     length 6.95643  
     axis 0 0 20  XYZ
    dof rx ry rz
    limits (-160.0 20.0)
           (-70.0 70.0)
           (-60.0 70.0)
  end
  begin
     id 3 
     name ltibia
     direction 0.34192 -0.939729 0   
     length 5.55969   
     axis 0 0 20   XYZ
    dof rx
    limits (-10.0 170.0)
  end
  begin
     id 4 
     name lfoot
     direction 0.216943 -0.596046 0.773088   
     length 2.27918   
     axis -90 7.62852e-016 20   XYZ
    dof rx rz
    limits (-45.0 90.0)
           (-70.0 20.0)
  end
  begin
     id 5 
     name ltoes
     direction 1.53519e-011 -4.21748e-011 1   
     length 1.05562   
     axis -90 7.62852e-016 20   XYZ
    dof rx
    limits (-90.0 20.0)
  end
  begin
     id 6 
     name rhipjoint
     direction -0.576368 -0.719173 0.38806   
     length 2.1142  
     axis 0 0 0  XYZ 
  end
  begin
     id 7 
     name rfemur
     direction -0.34202 -0.939693 0   
     length 7.07928   
     axis 0 0 -20   XYZ
    dof rx ry rz
    limits (-160.0 20.0)
           (-70.0 70.0)
           (-70.0 60.0)
  end
  begin
     id 8 
     name rtibia
     direction -0.34202 -0.939693 0   
     length 5.79974   
     axis 0 0 -20   XYZ
    dof rx
    limits (-10.0 170.0)
 end
 begin
     id 9 
     name rfoot
     direction -0.189288 -0.520065 0.832888   
     length 2.42173  
     axis -90 -7.62852e-016 -20   XYZ
    dof rx rz
    limits (-45.0 90.0)
           (-20.0 70.0)
  end
  begin
     id 10 
     name rtoes
     direction -1.53574e-011 -4.21658e-011 1   
     length 1.14469   
     axis -90 -7.62852e-016 -20   XYZ
    dof rx
    limits (-90.0 20.0)
  end
  begin
     id 11 
     name lowerback
     direction -0.00135702 0.993803 0.111144   
     length 1.91308   
     axis 0 0 0   XYZ
    dof rx ry rz
    limits (-20.0 45.0)
           (-30.0 30.0)
           (-30.0 30.0)
  end
  begin
     id 12 
     name upperback
     direction -0.0056745 0.999813 0.0184631   
     length 1.9212   
     axis 0 0 0   XYZ
    dof rx ry rz
    limits (-20.0 45.0)
           (-30.0 30.0)
           (-30.0 30.0)
  end
  begin
     id 13 
     name thorax
     direction -0.00733434 0.999426 -0.0330788   
     length 1.94196   
     axis 0 0 0   XYZ
    dof rx ry rz
    limits (-20.0 45.0)
           (-30.0 30.0)
           (-30.0 30.0)
  end
  begin
     id 14 
     name lowerneck
     direction 0.0563074 0.996944 -0.0541571   
     length 2.34257   
     axis 0 0 0   XYZ
    dof rx ry rz
    limits (-20.0 45.0)
           (-30.0 30.0)
           (-30.0 30.0)
  end
  begin
     id 15 
     name upperneck
     direction -0.0544519 0.976166 -0.210085   
     length 2.32506   
     axis 0 0 0   XYZ
    dof rx ry rz
    limits (-20.0 45.0)
           (-30.0 30.0)
           (-30.0 30.0)
  end
  begin
     id 16
     name head
     direction -0.0226035 0.997615 -0.0652205  
     length 2.3648  
     axis 0 0 0   XYZ
    dof rx ry rz
    limits (-20.0 45.0)
           (-30.0 30.0)
           (-30.0 30.0)
  end
  begin
     id 17 
     name lclavicle
     direction 0.92109 0.381297 -0.0787716  
     length 4.0487  
     axis 0 0 0   XYZ
    dof ry rz
    limits (-20.0 10.0)
           (0.0 20.0)
  end
  begin
     id 18 
     name lhumerus
     direction 1 -4.48986e-011 3.56724e-027   
     length 4.94991   
     axis 180 -30 -90   XYZ
    dof rx ry rz
    limits (-60.0 90.0)
           (-90.0 90.0)
           (-90.0 90.0)
  end
  begin
     id 19
     name lradius
     direction 1 -4.48981e-011 8.62147e-027   
     length 2.7606   
     axis 180 -30 -90   XYZ
    dof rx
    limits (-10.0 170.0)
  end
  begin
     id 20
     name lwrist
     direction 1 -4.48989e-011 1.59799e-026   
     length 1.3803   
     axis -1.17785e-014 90 90   XYZ
    dof ry
    limits (-180.0 0.0)
 end
  begin
     id 21 
     name lhand
     direction 1 -4.48896e-011 3.19599e-026   
     length 0.843936   
     axis -2.03931e-014 90 90   XYZ
    dof rx rz
    limits (-90.0 90.0)
           (-45.0 45.0)
  end
  begin
     id 22 
     name lfingers
     direction 1 -4.48887e-011 6.39197e-026   
     length 0.680403   
     axis -4.07862e-014 90 90   XYZ
    dof rx
    limits (0.0 90.0)
  end
  begin
     id 23
     name lthumb
     direction 0.707107 -6.348e-011 0.707107   
     length 0.976926   
     axis -90 45 2.85299e-015   XYZ
    dof rx rz
    limits (-45.0 45.0)
           (-45.0 45.0)
  end
  begin
     id 24 
     name rclavicle
     direction -0.951104 0.307692 -0.026953   
     length 4.21801  
     axis 0 0 0   XYZ 
    dof ry rz
    limits (-10.0 20.0)
           (-20.0 0.0)
  end
  begin
     id 25 
     name rhumerus
     direction -1 -4.4896e-011 -1.8171e-018  
     length 4.32982   
     axis 180 30 90   XYZ
    dof rx ry rz
    limits (-90.0 60.0)
           (-90.0 90.0)
           (-90.0 90.0)
  end
  begin
     id 26 
     name rradius
     direction -1 -4.48959e-011 8.25165e-027   
     length 3.20057   
     axis 180 30 90   XYZ
    dof rx
    limits (-10.0 170.0)
  end
  begin
     id 27 
     name rwrist
     direction -1 -4.48997e-011 1.59799e-026   
     length 1.60029   
     axis -1.17785e-014 -90 -90   XYZ
    dof ry
    limits (-180.0 0.0)
  end
  begin
     id 28
     name rhand
     direction -1 -4.49023e-011 3.19599e-026   
     length 0.960433   
     axis -2.03931e-014 -90 -90   XYZ
    dof rx rz
    limits (-90.0 90.0)
           (-45.0 45.0)
  end
  begin
     id 29
     name rfingers
     direction -1 -4.48802e-011 6.39197e-026   
     length 0.774326   
     axis -4.07862e-014 -90 -90   XYZ
    dof rx
    limits (0.0 90.0)
  end
  begin
     id 30
     name rthumb
     direction -0.707107 -6.34876e-011 0.707107   
     length 1.11178   
     axis -90 -45 -2.85299e-015   XYZ
    dof rx rz
    limits (-45.0 45.0)
           (-45.0 45.0)
  end
:hierarchy
  begin
    root lhipjoint rhipjoint lowerback
    lhipjoint lfemur
    lfemur ltibia
    ltibia lfoot
    lfoot ltoes
    rhipjoint rfemur
    rfemur rtibia
    rtibia rfoot
    rfoot rtoes
    lowerback upperback
    upperback thorax
    thorax lowerneck lclavicle rclavicle
    lowerneck upperneck
    upperneck head
    lclavicle lhumerus
    lhumerus lradius
    lradius lwrist
    lwrist lhand lthumb
    lhand lfingers
    rclavicle rhumerus
    rhumerus rradius
    rradius rwrist
    rwrist rhand rthumb
    rhand rfingers
end

#!OML:ASF C:\KaitlinTest1\Natural Motions\Nikki\Session 2\Nikki.ASF
:FULLY-SPECIFIED
:DEGREES
58
root -13.6895 16.6515 4.56958 -108.15 87.7582 -116.286
lowerback -11.1337 -0.908017 2.91606
upperback -3.59106 -1.35072 -1.18875
thorax 2.39019 -0.625494 -3.05097
lowerneck -5.40618 -11.8319 -9.62064
upperneck 6.01531 40.7788 5.8712
head 166.805 61.8357 -38.0687
rclavicle -5.76476e-015 -9.14409e-015
rhumerus -40.7041 -30.5259 -79.0305
rradius 16.5456
rwrist 28.8457
rhand -36.6781 2.14659
rfingers 7.12502
rthumb -9.76405 -27.6071
lclavicle -5.76476e-015 -9.14409e-015
lhumerus -39.9087 16.9864 80.5562
lradius 20.0995
lwrist -42.702
lhand -33.5391 3.38514
lfingers 7.12502
lthumb -6.73461 33.258
rfemur -5.5201 -13.8147 20.066
rtibia 11.7811
rfoot -11.2923 11.0833
rtoes 8.74653e-015
lfemur -11.1075 14.5937 -18.7561
ltibia 15.9094
lfoot -5.06186 -15.1685
ltoes 3.18055e-015
59
root -13.69 16.65 4.56976 -108.439 87.7562 -116.558
lowerback -11.0921 -0.905092 2.92653
upperback -3.6069 -1.34642 -1.19113
thorax 2.35091 -0.624234 -3.05756
lowerneck -5.363 -11.8197 -9.64442
upperneck 6.03503 40.8114 5.88603
head 166.878 61.8059 -38.0168
rclavicle 5.2181e-015 7.95139e-015
rhumerus -40.7441 -30.491 -79.0324
rradius 16.5701
rwrist 28.821
rhand -36.6714 2.09973
rfingers 7.12502
rthumb -9.75759 -27.6542
lclavicle 5.2181e-015 7.95139e-015
lhumerus -39.9331 16.8243 80.6467
lradius 20.1224
lwrist -42.5495
lhand -33.5698 3.44282
lfingers 7.12502
lthumb -6.76428 33.3148
rfemur -5.49655 -13.847 20.0659
rtibia 11.7751
rfoot -11.2931 11.0999
rtoes 6.36111e-015
lfemur -11.0876 14.6403 -18.7567
ltibia 15.9001
lfoot -5.07803 -15.2544
ltoes 3.02153e-014
60
root -13.6887 16.6506 4.57083 -108.09 87.7795 -116.208
lowerback -11.0838 -0.897499 2.90637
upperback -3.61514 -1.33355 -1.19394
thorax 2.33916 -0.618018 -3.04716
lowerneck -5.35369 -11.8096 -9.66265
upperneck 6.04674 40.852 5.89686
head 166.943 61.7653 -37.9766
rclavicle 1.52567e-014 -3.97569e-015
rhumerus -40.784 -30.5325 -78.9806
rradius 16.565
rwrist 28.8809
rhand -36.6458 2.18179
rfingers 7.12502
rthumb -9.73291 -27.5733
lclavicle 1.52567e-014 -3.97569e-015
lhumerus -39.9575 16.8474 80.6423
lradius 20.1345
lwrist -42.5778
lhand -33.611 3.44425
lfingers 7.12502
lthumb -6.80407 33.3149
rfemur -5.50073 -13.7798 20.038
rtibia 11.7927
rfoot -11.231 11.0687
rtoes 3.10104e-014
lfemur -11.0645 14.5985 -18.7654
ltibia 15.8819
lfoot -5.07501 -15.1791
ltoes -7.95139e-015
61
root -13.6882 16.6517 4.57094 -108.136 87.7733 -116.261
lowerback -11.1063 -0.897601 2.93329
upperback -3.59188 -1.33729 -1.21712
thorax 2.3741 -0.619323 -3.08793
lowerneck -5.38466 -11.8162 -9.61753
upperneck 6.02586 40.8089 5.90152
head 166.948 61.8126 -37.9806
rclavicle -7.90169e-015 -7.55382e-015
rhumerus -40.7312 -30.6307 -79.0147
rradius 16.5247
rwrist 28.9549
rhand -36.6407 2.19229
rfingers 7.12502
rthumb -9.72804 -27.563
lclavicle -7.90169e-015 -7.55382e-015
lhumerus -39.887 16.7557 80.6694
lradius 20.141
lwrist -42.4183
lhand -33.576 3.45599
lfingers 7.12502
lthumb -6.77026 33.3277
rfemur -5.51054 -13.7993 20.0445
rtibia 11.8091
rfoot -11.2622 11.0811
rtoes -8.26944e-014
lfemur -11.0772 14.5968 -18.7633
ltibia 15.8745
lfoot -5.0571 -15.1924
ltoes -3.65764e-014
